<?xml version="1.0" standalone="no"?>
<!DOCTYPE svg PUBLIC "-//W3C//DTD SVG 20010904//EN"
 "http://www.w3.org/TR/2001/REC-SVG-20010904/DTD/svg10.dtd">
<svg version="1.0" xmlns="http://www.w3.org/2000/svg"
 width="709.000000pt" height="1280.000000pt" viewBox="0 0 709.000000 1280.000000"
 preserveAspectRatio="xMidYMid meet">
<metadata>
Created by potrace 1.15, written by Peter Selinger 2001-2017
</metadata>
<g transform="translate(0.000000,1280.000000) scale(0.100000,-0.100000)"
fill="#000000" stroke="none">
<path d="M29 12771 c-53 -54 -38 -101 79 -248 90 -113 152 -197 152 -207 0 -3
-11 -6 -25 -6 -30 0 -84 -26 -103 -49 -40 -50 -53 -93 -54 -179 -2 -134 17
-157 224 -267 81 -43 114 -66 142 -102 40 -52 80 -81 169 -125 99 -49 110 -61
173 -179 62 -117 101 -168 294 -384 63 -71 158 -186 210 -255 113 -150 128
-165 389 -388 112 -96 216 -188 232 -206 44 -46 74 -101 108 -193 50 -136 101
-222 263 -441 l70 -95 -30 -116 c-17 -64 -33 -136 -36 -161 -7 -57 17 -218 35
-234 8 -7 50 -25 94 -40 123 -43 241 -101 298 -147 133 -108 252 -240 282
-314 53 -124 120 -763 132 -1250 6 -244 -4 -445 -32 -635 -35 -237 -38 -283
-36 -611 2 -451 -7 -561 -63 -737 -73 -226 -109 -414 -156 -802 -12 -96 -26
-195 -31 -219 -12 -56 -154 -397 -252 -606 -79 -170 -150 -358 -216 -570 -22
-71 -103 -332 -180 -580 -155 -498 -294 -976 -347 -1190 -61 -248 -73 -349
-76 -655 -3 -254 -2 -278 16 -310 45 -85 160 -210 221 -243 54 -29 183 -31
235 -3 61 33 137 95 165 136 77 111 95 288 49 497 -34 157 -30 223 19 297 19
29 76 102 127 162 70 84 106 139 157 239 36 72 165 321 286 555 121 234 352
688 515 1010 441 874 519 1018 696 1280 169 250 290 346 377 300 40 -22 162
-221 496 -810 380 -671 406 -720 537 -1043 90 -223 120 -284 174 -356 l41 -54
-6 -122 -6 -122 41 -44 c22 -24 89 -73 148 -108 157 -92 281 -189 369 -285 45
-50 94 -93 118 -105 95 -46 374 -91 471 -77 53 8 91 47 102 102 22 118 -115
378 -307 581 -55 59 -112 128 -126 153 -14 25 -56 92 -92 150 -36 57 -74 128
-84 157 -9 30 -37 82 -61 117 -48 71 -66 132 -86 296 -31 260 -92 500 -211
837 -86 239 -122 379 -199 755 -75 371 -111 506 -199 739 -79 210 -111 322
-111 391 0 41 -5 52 -34 82 -33 33 -35 36 -29 91 5 49 3 60 -18 88 -35 48 -32
99 12 172 20 33 41 76 47 95 35 112 112 894 112 1130 0 202 -32 395 -82 490
-27 54 -28 60 -38 285 -10 244 -19 303 -68 420 -16 39 -39 101 -52 138 -12 38
-35 84 -51 102 -37 41 -169 107 -274 136 -88 23 -96 27 -172 76 l-53 33 60 81
c117 157 200 319 260 506 45 140 47 180 9 190 -17 5 -19 11 -13 32 42 159 55
358 31 496 -44 245 -148 372 -376 455 -125 46 -258 64 -351 50 -85 -14 -226
-61 -286 -95 -46 -27 -115 -98 -139 -145 -66 -127 -124 -362 -128 -515 l-2
-95 -45 0 c-51 0 -62 -6 -79 -39 -21 -38 5 -256 38 -335 22 -51 67 -80 112
-74 l29 5 2 -124 c0 -68 1 -129 2 -135 1 -7 -8 -14 -18 -16 -13 -3 -44 23
-105 87 -89 94 -282 250 -456 369 -102 69 -106 71 -356 146 -70 21 -107 41
-204 108 -66 46 -164 125 -220 177 -126 119 -216 196 -279 241 -27 20 -93 91
-151 165 -161 204 -277 330 -455 496 -91 84 -265 247 -386 361 -289 272 -373
340 -457 367 -46 15 -67 49 -152 245 -34 77 -70 158 -81 178 -27 52 -442 550
-482 578 -24 17 -41 21 -70 17 -31 -4 -41 -1 -50 14 -17 27 -49 23 -83 -10z"/>
</g>
</svg>
