<?xml version="1.0" standalone="no"?>
<!DOCTYPE svg PUBLIC "-//W3C//DTD SVG 20010904//EN"
 "http://www.w3.org/TR/2001/REC-SVG-20010904/DTD/svg10.dtd">
<svg version="1.0" xmlns="http://www.w3.org/2000/svg"
 width="1006.000000pt" height="1280.000000pt" viewBox="0 0 1006.000000 1280.000000"
 preserveAspectRatio="xMidYMid meet">
<metadata>
Created by potrace 1.15, written by Peter Selinger 2001-2017
</metadata>
<g transform="translate(0.000000,1280.000000) scale(0.100000,-0.100000)"
fill="#000000" stroke="none">
<path d="M9040 12336 c-1092 -502 -2734 -1257 -3600 -1654 -300 -138 -550
-252 -555 -254 -19 -6 -565 286 -560 299 6 17 244 361 254 367 3 3 180 -29
391 -70 212 -40 388 -74 393 -74 4 0 7 5 7 11 0 6 68 230 151 498 82 267 152
494 155 504 3 9 15 18 27 18 17 1 18 2 5 6 -23 6 -23 9 15 128 l33 100 194 27
c191 27 1005 140 1710 238 195 27 379 52 408 56 50 6 83 24 45 24 -10 0 -756
27 -1658 60 l-1640 60 -45 -44 c-25 -23 -468 -447 -985 -941 -517 -494 -971
-929 -1010 -966 l-70 -67 -280 -44 c-253 -39 -283 -45 -307 -68 -40 -37 -1728
-1962 -1728 -1970 0 -4 190 -164 423 -356 232 -192 501 -414 598 -495 l177
-146 -254 -613 c-227 -545 -272 -664 -231 -609 7 8 269 305 583 660 315 354
573 648 574 653 1 4 -238 209 -532 453 -293 245 -533 450 -533 455 0 5 216
258 480 562 404 467 481 550 486 532 4 -11 12 -100 18 -196 11 -162 46 -664
121 -1730 51 -720 109 -1557 121 -1725 l11 -160 -85 -310 c-47 -170 -223 -814
-390 -1430 -168 -616 -394 -1447 -503 -1847 l-198 -726 -80 -20 c-45 -11 -215
-52 -379 -92 l-298 -73 -247 -491 c-135 -270 -247 -494 -247 -499 0 -4 61 -76
135 -161 l135 -154 120 -5 c66 -4 716 -11 1445 -17 1256 -10 2533 -22 3770
-35 l555 -6 650 596 650 596 1035 519 1035 519 -125 0 c-69 1 -642 -4 -1275
-9 -1076 -10 -1170 -12 -1460 -35 -170 -14 -483 -38 -695 -55 -212 -17 -582
-46 -824 -65 -241 -19 -450 -35 -465 -35 -37 0 -216 152 -215 183 0 12 132
349 292 750 161 400 292 732 292 738 0 6 -351 517 -780 1136 l-780 1125 321
796 c177 439 445 1103 596 1477 150 374 358 888 460 1142 l186 462 1511 867
c831 477 1514 869 1518 871 4 2 67 -24 141 -56 l135 -60 322 92 321 91 -5 36
c-12 81 -28 442 -20 450 5 5 243 151 529 325 286 175 524 321 529 326 5 5 8
10 5 13 -2 2 -456 -204 -1009 -458z m-5379 -8031 c428 -487 632 -726 631 -740
-1 -11 -56 -303 -122 -650 -101 -530 -186 -924 -202 -940 -3 -4 -916 -78
-1303 -106 -131 -10 -190 -21 -475 -90 -179 -44 -328 -79 -332 -79 -4 0 175
543 398 1208 655 1949 724 2156 724 2161 0 10 41 -36 681 -764z"/>
</g>
</svg>
