<svg xmlns="http://www.w3.org/2000/svg">
    <symbol id="soccercards" viewBox="0 0 48 32">
        <title>Soccer referee cards</title>
        <path d="M22.086 23.082l-0.168-0.206v-2.49h-2.030l-0.335-0.411v-5.572c0-5.124 0.007-5.586 0.083-5.745 0.046-0.095 0.14-0.202 0.21-0.237 0.086-0.044 1.183-0.059 3.444-0.048l3.317 0.016 0.119 0.17c0.117 0.168 0.119 0.184 0.119 1.435v1.266h0.983c0.657 0 1.026 0.024 1.112 0.072 0.28 0.156 0.27-0.071 0.27 5.942s0.010 5.785-0.27 5.942c-0.096 0.054-0.971 0.072-3.408 0.072h-3.279zM28.738 22.767c0.070-0.033 0.078-0.574 0.078-5.5v-5.463h-1.971l-0.001 4.095c-0.001 3.789-0.007 4.105-0.086 4.224-0.171 0.259-0.217 0.264-2.348 0.264h-2.048v1.169c0 0.643 0.015 1.187 0.033 1.209 0.041 0.050 6.237 0.054 6.344 0.004zM25.829 21.507c-0.060-0.191 0.036-0.214 0.861-0.214 0.576 0 0.843-0.022 0.884-0.073s0.059-0.417 0.059-1.259c0-0.653 0.014-1.204 0.031-1.225s0.073-0.011 0.123 0.022c0.085 0.056 0.092 0.151 0.092 1.272v1.211l-0.288 0.353h-0.868c-0.713 0-0.872-0.016-0.895-0.088zM27.653 18.306c-0.048-0.153 0.003-0.365 0.092-0.386 0.105-0.025 0.157 0.118 0.115 0.321-0.033 0.164-0.163 0.204-0.207 0.065zM26.389 19.852c0.049-0.008 0.062-1.148 0.062-5.473 0-4.926-0.008-5.467-0.078-5.5-0.102-0.048-6.197-0.048-6.299 0-0.070 0.033-0.078 0.574-0.078 5.496v5.459l0.111 0.019c0.109 0.019 6.162 0.018 6.282-0.001zM22.803 18.681c-0.111-0.050-0.121-0.113-0.037-0.216 0.043-0.052 0.39-0.073 1.251-0.073 1.042 0 1.196-0.012 1.222-0.096 0.016-0.053 0.030-0.951 0.030-1.996 0-1.687 0.009-1.905 0.079-1.938 0.043-0.020 0.099 0.001 0.123 0.047s0.039 0.953 0.032 2.062c-0.012 1.951-0.014 1.98-0.122 2.112-0.106 0.131-0.139 0.134-1.296 0.138-0.653 0.002-1.23-0.016-1.283-0.040zM25.278 13.607c0.013-0.336 0.027-0.382 0.113-0.382 0.088 0 0.099 0.040 0.099 0.363 0 0.332-0.009 0.364-0.113 0.382-0.109 0.019-0.113 0.006-0.099-0.363z"></path>
    </symbol>

    <symbol id="soccervar" viewBox="0 0 49 32">
        <title>Soccer VAR</title>
        <path d="M20.146 21.018v-0.415h-4.070v-9.604h13.977v9.604h-4.070v0.829h-5.836zM29.275 15.801l-0.010-3.886h-12.402l-0.020 7.771h12.442zM18.847 17.253c-0.381-1.215-0.524-1.67-0.827-2.63-0.156-0.492-0.281-0.899-0.278-0.903 0.013-0.020 1.030-0.194 1.044-0.178 0.009 0.010 0.21 0.709 0.447 1.553s0.443 1.52 0.457 1.503c0.015-0.018 0.090-0.268 0.168-0.556 0.263-0.975 0.673-2.438 0.686-2.454 0.007-0.008 0.238-0.010 0.511-0.003l0.498 0.012-0.278 0.873c-0.153 0.48-0.46 1.443-0.682 2.139s-0.415 1.3-0.43 1.342c-0.023 0.068-0.087 0.076-0.55 0.076l-0.524-0zM23.795 17.548l-0.128-0.48h-1.358l-0.251 0.917h-0.477c-0.262 0-0.477-0.005-0.477-0.011 0-0.011 0.179-0.576 0.392-1.233 0.062-0.192 0.146-0.457 0.187-0.589s0.244-0.771 0.451-1.419l0.377-1.179h1.059l0.152 0.48c0.083 0.264 0.333 1.060 0.555 1.768s0.456 1.45 0.522 1.649c0.065 0.199 0.107 0.374 0.093 0.39-0.024 0.027-0.779 0.181-0.91 0.185-0.043 0.001-0.095-0.131-0.188-0.478zM23.41 16.205c0-0.051-0.406-1.49-0.427-1.514-0.017-0.020-0.422 1.443-0.419 1.515 0.002 0.043 0.846 0.043 0.846-0zM27.172 17.453c-0.575-1.058-0.552-1.023-0.675-1.017l-0.112 0.006-0.021 1.499h-0.957l0.001-4.409h0.913c1.005 0 1.191 0.033 1.485 0.263 0.395 0.309 0.585 1.027 0.419 1.582-0.070 0.235-0.303 0.552-0.507 0.692-0.079 0.054-0.149 0.103-0.156 0.109s0.204 0.375 0.47 0.818c0.483 0.807 0.484 0.807 0.378 0.831-0.174 0.040-0.85 0.157-0.902 0.156-0.027-0-0.178-0.239-0.336-0.53zM27.037 15.536c0.161-0.088 0.289-0.323 0.289-0.531 0-0.428-0.233-0.641-0.701-0.643l-0.259-0.001v1.277l0.279-0.020c0.154-0.011 0.33-0.048 0.392-0.082z"></path>
    </symbol>

    <symbol id="soccergoal" viewBox="0 0 32 32">
        <title>Soccer goal net</title>
        <path d="M8.111 20.888c-0.18-0.179-0.185-0.307-0.185-4.508s0.005-4.329 0.185-4.508c0.182-0.181 0.309-0.184 7.869-0.184s7.687 0.003 7.869 0.184c0.18 0.179 0.185 0.307 0.185 4.508s-0.005 4.329-0.185 4.508c-0.375 0.373-0.926 0.084-0.926-0.486 0-0.243-0.096-0.396-0.489-0.782-0.269-0.264-0.558-0.48-0.643-0.48s-0.179-0.041-0.211-0.092c-0.079-0.127-11.123-0.127-11.202 0-0.031 0.051-0.129 0.092-0.217 0.092s-0.377 0.219-0.643 0.486c-0.381 0.383-0.483 0.548-0.483 0.782 0 0.337-0.274 0.664-0.555 0.664-0.102 0-0.268-0.083-0.37-0.184zM9.87 18.191v-0.819l-0.346 0.065c-0.191 0.036-0.378 0.084-0.417 0.108s-0.070 0.546-0.070 1.161v1.118l0.833-0.813zM22.857 17.568c-0.040-0.038-0.229-0.098-0.42-0.133l-0.347-0.063v1.623l0.787 0.797 0.026-1.077c0.014-0.593-0.006-1.109-0.046-1.147zM11.722 18.036v-0.736h-1.296v1.472h1.296zM13.388 18.036v-0.736h-1.481v1.472h1.481zM15.055 18.036v-0.736h-1.481v1.472h1.481zM16.721 18.036v-0.736h-1.481v1.472h1.481zM18.387 18.036v-0.736h-1.481v1.472h1.481zM20.054 18.036v-0.736h-1.481v1.472h1.481zM21.535 18.036v-0.736h-1.296v1.472h1.296zM9.87 16.381v-0.797l-0.833-0.189v1.973l0.833-0.189zM22.924 16.393v-0.999l-0.833 0.189v1.599l0.393 0.094c0.216 0.052 0.404 0.099 0.417 0.105s0.023-0.439 0.023-0.988zM11.722 16.381v-0.736h-1.296v1.472h1.296zM13.388 16.381v-0.736h-1.481v1.472h1.481zM15.055 16.381v-0.736h-1.481v1.472h1.481zM16.721 16.381v-0.736h-1.481v1.472h1.481zM18.387 16.381v-0.736h-1.481v1.472h1.481zM20.054 16.381v-0.736h-1.481v1.472h1.481zM21.535 16.381v-0.736h-1.296v1.472h1.296zM11.722 14.725v-0.736h-1.296v1.472h1.296zM13.388 14.725v-0.736h-1.481v1.472h1.481zM15.055 14.725v-0.736h-1.481v1.472h1.481zM16.721 14.725v-0.736h-1.481v1.472h1.481zM18.387 14.725v-0.736h-1.481v1.472h1.481zM20.054 14.725v-0.736h-1.481v1.472h1.481zM21.535 14.725v-0.736h-1.296v1.472h1.296zM9.87 14.698v-0.671l-0.84-0.819 0.027 1.007c0.026 0.987 0.031 1.009 0.258 1.071 0.543 0.15 0.555 0.137 0.555-0.589zM22.854 15.217c0.039-0.024 0.070-0.484 0.070-1.023v-0.98l-0.833 0.813v1.362l0.346-0.065c0.191-0.036 0.378-0.084 0.417-0.108zM11.612 13.736c-0.018-0.038-0.134-0.266-0.258-0.506l-0.225-0.437h-1.669l1.006 1.012h0.589c0.324 0 0.575-0.031 0.556-0.069zM13.296 13.729c0-0.042-0.066-0.269-0.148-0.506l-0.148-0.43h-0.825c-0.453 0-0.825 0.025-0.825 0.055s0.115 0.258 0.255 0.506l0.255 0.45 0.717 0c0.395 0 0.717-0.034 0.717-0.075zM15.020 13.517c-0.032-0.158-0.058-0.386-0.058-0.506 0-0.215-0.015-0.218-0.88-0.218-0.484 0-0.88 0.016-0.88 0.035s0.056 0.174 0.125 0.345c0.069 0.171 0.151 0.383 0.182 0.471 0.048 0.136 0.176 0.161 0.812 0.161h0.755zM16.755 13.598c0.031-0.114 0.056-0.341 0.057-0.506l0.001-0.299h-1.666l0.001 0.299c0.003 0.683 0.037 0.713 0.832 0.713 0.667 0 0.723-0.015 0.775-0.207zM18.582 13.276l0.165-0.483h-0.874c-0.858 0-0.874 0.004-0.874 0.218 0 0.12-0.026 0.35-0.059 0.51l-0.059 0.291 1.535-0.054zM20.285 13.371c0.102-0.238 0.2-0.468 0.217-0.509s-0.333-0.064-0.778-0.049l-0.81 0.027-0.33 0.966 1.516-0.001 0.185-0.434zM21.998 13.299l0.503-0.506h-1.776l-0.197 0.454c-0.108 0.25-0.197 0.477-0.197 0.506s0.262 0.052 0.582 0.052h0.582z"></path>
    </symbol>

    <symbol id="soccerfield" viewBox="0 0 32 32">
        <title>Soccer field</title>
        <path d="M7.021 27.285c-0.101-0.098-0.101-0.165-0.101-11.521s0.001-11.423 0.101-11.521c0.101-0.098 0.169-0.099 8.311-0.099s8.21 0.001 8.311 0.099c0.101 0.098 0.101 0.165 0.101 11.521s-0.001 11.423-0.101 11.521c-0.101 0.098-0.169 0.099-8.311 0.099s-8.21-0.001-8.311-0.099zM10.061 25.454v-1.238l0.249-0.243h2.232l0.031-0.136c0.167-0.737 0.55-1.324 1.124-1.726 0.536-0.375 0.913-0.487 1.634-0.487s1.098 0.112 1.634 0.487c0.575 0.401 0.958 0.989 1.124 1.726l0.031 0.136h2.232l0.249 0.243v2.477h2.432v-10.582h-3.849l-0.029 0.136c-0.173 0.807-0.345 1.227-0.702 1.711-1.529 2.073-4.714 2.076-6.241 0.005-0.371-0.503-0.539-0.915-0.711-1.74l-0.023-0.111h-3.849v10.582h2.432zM19.892 25.678v-1.014h-9.122v2.027h9.122zM17.379 23.836c-0.125-0.534-0.593-1.104-1.106-1.347-0.815-0.386-1.735-0.251-2.387 0.351-0.271 0.25-0.533 0.683-0.604 0.996l-0.031 0.136h4.159zM16.357 18.67c1.096-0.399 1.887-1.299 2.086-2.374l0.034-0.185h-6.296l0.033 0.161c0.254 1.237 1.115 2.143 2.36 2.483 0.434 0.118 1.345 0.075 1.783-0.084zM11.499 15.331c0.014-0.048 0.041-0.187 0.060-0.309 0.051-0.33 0.303-0.937 0.533-1.284 1.296-1.957 4.058-2.313 5.831-0.751 0.662 0.583 1.003 1.217 1.234 2.294l0.029 0.136h3.849v-10.582h-2.432v2.477l-0.249 0.243h-2.232l-0.030 0.136c-0.246 1.126-1.089 1.96-2.22 2.196-0.403 0.084-1.113 0.025-1.528-0.128-0.883-0.325-1.563-1.119-1.77-2.069l-0.030-0.136h-2.232l-0.249-0.243v-2.477h-2.432v10.582h1.922c1.787 0 1.924-0.006 1.947-0.087zM18.449 15.257c-0.21-1.026-0.832-1.818-1.774-2.261-0.483-0.227-0.804-0.298-1.343-0.298-0.513 0-0.85 0.070-1.292 0.27-0.972 0.438-1.61 1.238-1.825 2.289l-0.033 0.161h6.3zM15.914 9.179c0.663-0.162 1.308-0.816 1.465-1.487l0.032-0.136h-4.159l0.031 0.136c0.074 0.327 0.336 0.753 0.619 1.006 0.575 0.514 1.234 0.671 2.013 0.481zM19.892 5.85v-1.014h-9.122v2.027h9.122z"></path>
    </symbol>

    <symbol id="cornerflag" viewBox="0 0 32 32">
        <title>Soccer corner flag</title>
        <path d="M15.253 5.914c-0.156-0.002-0.313 0.074-0.396 0.23l-0.050 0.096v13.51l-0.464 0.331c-0.598 0.426-4.423 3.148-5.385 3.832-0.406 0.288-0.746 0.531-0.755 0.539-0.014 0.012 0.359 0.537 0.441 0.621 0.023 0.023 0.243-0.125 1.2-0.805 0.645-0.458 1.223-0.869 1.285-0.912l0.113-0.079 0.141 0.169c0.323 0.386 0.856 0.831 1.31 1.094 0.594 0.344 1.369 0.595 2.050 0.663 0.735 0.074 1.56-0.031 2.258-0.287 0.84-0.308 1.634-0.872 2.161-1.535l0.083-0.104 0.069 0.047c0.038 0.026 0.616 0.436 1.284 0.912s1.223 0.86 1.233 0.854c0.021-0.013 0.471-0.605 0.471-0.621 0-0.006-1.49-1.070-3.311-2.364l-3.311-2.353-0-6.754c-0.001-6.506-0.002-6.757-0.042-6.841-0.075-0.158-0.229-0.239-0.384-0.241zM22.358 6.068c-0.515 0.001-1.020 0.065-1.537 0.193-0.366 0.091-0.58 0.158-1.228 0.388-0.801 0.284-1.035 0.353-1.387 0.407-0.752 0.116-1.484-0.096-2.164-0.627-0.064-0.050-0.122-0.091-0.129-0.091s-0.009 1.128-0.006 2.506l0.006 2.506 0.213 0.1c0.336 0.159 0.825 0.303 1.174 0.346 0.037 0.005 0.222 0.010 0.411 0.012 0.6 0.006 0.933-0.062 2.047-0.417 1.129-0.36 1.559-0.451 2.218-0.475 0.623-0.022 1.165 0.059 1.811 0.27 0.209 0.068 0.398 0.132 0.42 0.141 0.037 0.015 0.039-0.111 0.039-2.493v-2.51l-0.296-0.068c-0.553-0.126-1.077-0.189-1.592-0.189zM15.248 20.423l1.161 0.826c0.638 0.454 1.39 0.99 1.671 1.189l0.51 0.363-0.107 0.132c-0.156 0.192-0.459 0.479-0.678 0.643-0.646 0.483-1.379 0.76-2.202 0.833-1.179 0.104-2.375-0.304-3.229-1.103-0.233-0.218-0.459-0.473-0.448-0.505 0.006-0.017 0.875-0.64 3.108-2.227z"></path>
    </symbol>

    <symbol id="soccerball" viewBox="0 0 31 32">
        <title>Soccer ball</title>
        <path d="M13.795 27.169c-1.379-0.125-2.76-0.524-3.981-1.151-1.085-0.557-1.983-1.222-2.847-2.105-0.893-0.914-1.488-1.745-2.045-2.861-0.633-1.268-1.004-2.535-1.162-3.963-0.066-0.595-0.065-1.854 0.002-2.438 0.251-2.201 1.045-4.16 2.382-5.877 0.381-0.489 1.189-1.319 1.662-1.705 1.079-0.883 2.219-1.518 3.49-1.944 4.704-1.579 9.836 0.225 12.602 4.429 1.605 2.44 2.224 5.466 1.708 8.355-0.883 4.944-4.797 8.681-9.672 9.236-0.538 0.061-1.605 0.074-2.138 0.026zM15.129 26.455c-0.247-0.088-0.872-0.357-1.091-0.47l-0.276-0.142-1.988-0.363c-1.093-0.2-2.025-0.37-2.071-0.378-0.079-0.014-0.081-0.013-0.028 0.029 0.077 0.061 0.833 0.438 1.131 0.563 0.923 0.389 2.113 0.68 3.108 0.76 0.202 0.016 1.26 0.017 1.215 0.001zM14.282 24.568c0.217-0.299 0.534-0.743 0.706-0.989l0.312-0.446-0.259-0.461c-0.142-0.254-0.662-1.177-1.156-2.052l-0.897-1.591-0.179-0.029c-1.558-0.251-3.011-0.549-3.684-0.754-0.076-0.023-0.146-0.032-0.156-0.021-0.017 0.020-0.355 0.562-1.48 2.376-0.233 0.376-0.424 0.698-0.424 0.716 0 0.083 0.478 0.936 0.85 1.515 0.209 0.326 0.782 1.125 0.95 1.325 0.058 0.069 0.11 0.084 0.533 0.161 0.865 0.157 1.736 0.316 2.112 0.386 0.205 0.038 0.659 0.121 1.008 0.185s0.79 0.145 0.98 0.181c0.19 0.036 0.355 0.059 0.367 0.052s0.199-0.257 0.416-0.555zM21.407 23.993c0.61-0.522 1.299-1.292 1.8-2.011 0.816-1.172 1.429-2.668 1.694-4.132 0.058-0.318 0.141-0.961 0.141-1.088 0-0.069-0.001-0.069-0.104 0.031-0.226 0.221-0.961 0.677-1.651 1.025l-0.385 0.194-0.564 1.080c-0.31 0.594-0.865 1.654-1.233 2.356l-0.668 1.276 0.095 0.353c0.104 0.388 0.258 1.146 0.258 1.27 0 0.043 0.008 0.087 0.017 0.097 0.024 0.024 0.202-0.11 0.601-0.451zM17.296 22.705c0.792-0.062 1.605-0.166 2.238-0.284l0.305-0.057 0.282-0.543c0.155-0.299 0.691-1.326 1.192-2.284l0.91-1.741-0.21-0.412c-0.423-0.829-0.833-1.538-1.412-2.444l-0.322-0.503-0.097 0.015c-0.053 0.008-0.401 0.046-0.773 0.085s-1.285 0.135-2.029 0.214c-0.744 0.079-1.506 0.158-1.693 0.175l-0.34 0.032-0.139 0.284c-0.19 0.389-0.89 1.754-1.323 2.582-0.196 0.375-0.356 0.694-0.356 0.711s0.405 0.749 0.901 1.627c0.495 0.879 1.019 1.808 1.163 2.065s0.276 0.485 0.293 0.506c0.025 0.032 0.125 0.035 0.542 0.020 0.281-0.010 0.673-0.032 0.87-0.047zM7.7 18.93c0.784-1.262 0.807-1.303 0.793-1.416-0.008-0.064-0.053-0.34-0.099-0.612-0.158-0.926-0.244-1.825-0.275-2.872l-0.018-0.592-1.229-0.746c-0.676-0.411-1.241-0.742-1.256-0.738-0.045 0.015-0.597 0.875-0.782 1.218-0.157 0.291-0.18 0.356-0.241 0.675-0.141 0.742-0.164 1.021-0.164 2.034-0 0.753 0.010 1.022 0.048 1.303 0.101 0.739 0.215 1.271 0.407 1.901l0.109 0.357 0.271 0.266c0.308 0.303 0.729 0.64 1.077 0.864l0.238 0.153 0.157-0.249c0.086-0.137 0.52-0.833 0.964-1.548zM15.929 14.182c0.159-0.016 0.768-0.079 1.353-0.141s1.312-0.139 1.615-0.171c1.076-0.114 1.285-0.138 1.309-0.153 0.043-0.027 0.75-1.88 0.929-2.436l0.173-0.537-0.088-0.101c-0.048-0.055-0.796-0.921-1.662-1.923l-1.574-1.822-0.773 0.015c-0.448 0.009-1.017 0.040-1.353 0.073-1.101 0.11-1.581 0.167-1.633 0.195-0.047 0.026-0.269 0.691-1.318 3.964l-0.057 0.177 0.344 0.362c0.319 0.335 2.069 2.348 2.169 2.494 0.038 0.055 0.061 0.062 0.159 0.049 0.063-0.009 0.245-0.029 0.405-0.044zM8.886 12.585c0.924-0.586 2.215-1.257 3.148-1.637l0.233-0.095 0.616-1.897c0.339-1.043 0.616-1.916 0.616-1.939s-0.128-0.127-0.283-0.231c-0.52-0.346-0.943-0.575-1.442-0.781-0.167-0.069-0.314-0.136-0.328-0.149s-0.135 0.017-0.276 0.070c-1.421 0.529-2.754 1.416-3.814 2.539-0.327 0.346-0.334 0.357-0.542 0.79-0.318 0.662-0.767 1.817-0.778 2.002l-0.006 0.095 1.201 0.733c0.661 0.403 1.219 0.735 1.24 0.736s0.208-0.105 0.414-0.235zM24.115 11.386c-0.073-0.179-0.339-0.684-0.541-1.027-0.387-0.656-0.836-1.249-1.391-1.836-0.939-0.995-1.952-1.734-3.133-2.288-0.426-0.2-0.402-0.206-0.419 0.119l-0.010 0.2 1.61 1.867c0.886 1.027 1.625 1.876 1.643 1.887s0.151 0.066 0.295 0.123c0.403 0.158 1.218 0.58 1.602 0.831 0.19 0.124 0.355 0.226 0.366 0.228s0.002-0.045-0.022-0.104z"></path>
    </symbol>
</svg>
